<svg width="169" height="169" viewBox="0 0 169 169" fill="none" xmlns="http://www.w3.org/2000/svg">
<circle cx="84.5" cy="84.5" r="84.5" fill="black"/>
<path d="M66.4841 133.081L59.7242 141.657L53.3628 136.643L54.2666 135.496L59.45 139.582L61.4681 137.021L56.8501 133.382L57.7539 132.235L62.3719 135.875L64.3899 133.315L59.2065 129.229L60.1227 128.067L66.4841 133.081Z" fill="white"/>
<path d="M45.877 117.576L38.9425 115.976L35.831 121.865L35.0403 120.138L37.4768 115.657L32.4851 114.555L31.6945 112.827L38.1851 114.322L41.5075 108.028L42.2981 109.756L39.6409 114.667L45.0863 115.848L45.877 117.576Z" fill="white"/>
<path d="M34.0412 94.7134L23.1322 94.2236L23.352 89.3285C23.404 88.1697 23.7719 87.2586 24.4557 86.5953C25.1262 85.9314 26.0075 85.6239 27.0997 85.673C28.192 85.722 29.0422 86.1072 29.6505 86.8285C30.246 87.536 30.5174 88.4758 30.4648 89.6479L30.3123 93.0445L34.1085 93.2149L34.0412 94.7134ZM28.8937 92.9808L29.0427 89.6641C29.0773 88.8916 28.9241 88.2908 28.583 87.8617C28.2419 87.4326 27.7251 87.2025 27.0324 87.1715C26.3398 87.1404 25.8044 87.3232 25.4262 87.72C25.0347 88.1161 24.8216 88.7005 24.7869 89.473L24.638 92.7897L28.8937 92.9808Z" fill="white"/>
<path d="M36.9731 68.6773L27.116 63.978L27.7615 62.624L36.2827 66.6864L38.7701 61.469L40.106 62.1059L36.9731 68.6773Z" fill="white"/>
<path d="M51.8659 47.495C51.0782 48.1942 50.2108 48.6432 49.264 48.8418C48.3182 49.0216 47.3871 48.9567 46.4705 48.6471C45.5539 48.3376 44.7415 47.7839 44.0334 46.9861C43.3254 46.1884 42.872 45.3161 42.6734 44.3692C42.4747 43.4224 42.5252 42.4951 42.8248 41.5873C43.1256 40.6607 43.6698 39.8478 44.4576 39.1486C45.2554 38.4405 46.1271 37.9966 47.0728 37.8168C48.0197 37.6181 48.9514 37.6736 49.868 37.9832C50.7846 38.2928 51.597 38.8465 52.3051 39.6442C53.0131 40.4419 53.4665 41.3142 53.6651 42.2611C53.8638 43.208 53.8127 44.1447 53.512 45.0713C53.2124 45.979 52.6637 46.7869 51.8659 47.495ZM50.8967 46.4031C51.4851 45.8809 51.8886 45.291 52.1072 44.6334C52.3269 43.957 52.3628 43.2744 52.2149 42.5856C52.0582 41.8868 51.7143 41.2383 51.1832 40.6399C50.6433 40.0317 50.0401 39.6132 49.3737 39.3847C48.6985 39.1461 48.0164 39.1008 47.3276 39.2487C46.6399 39.3777 46.0063 39.7083 45.4268 40.2405C44.8285 40.7716 44.4245 41.3709 44.2147 42.0384C43.9961 42.696 43.9607 43.3692 44.1086 44.058C44.2665 44.738 44.6154 45.3821 45.1553 45.9904C45.6863 46.5887 46.2845 47.0116 46.9498 47.259C47.6162 47.4875 48.2933 47.5373 48.981 47.4082C49.6599 47.2692 50.2984 46.9342 50.8967 46.4031Z" fill="white"/>
<path d="M72.3887 39.6757L69.2002 29.2316L74.1928 27.7074C75.264 27.3804 76.2182 27.4237 77.0554 27.8373C77.8888 28.2381 78.4592 28.9422 78.7668 29.9496C79.2456 31.5182 78.7567 32.7478 77.3 33.6387L81.2643 36.9661L79.5618 37.4859L75.9221 34.3311L72.632 35.3355L73.8233 39.2378L72.3887 39.6757ZM72.2116 33.9583L75.559 32.9364C76.2859 32.7145 76.8047 32.3818 77.1155 31.9384C77.439 31.4911 77.5112 30.9742 77.3321 30.3876C77.1491 29.7882 76.7947 29.3806 76.2687 29.1648C75.7517 28.9323 75.1488 28.9212 74.4602 29.1314L71.0553 30.1708L72.2116 33.9583Z" fill="white"/>
<path d="M97.0725 38.0235L98.5241 27.2004L106.552 28.2772L106.358 29.7243L99.8167 28.8469L99.3834 32.078L105.211 32.8596L105.017 34.3067L99.1893 33.525L98.7559 36.7561L105.297 37.6335L105.101 39.1003L97.0725 38.0235Z" fill="white"/>
<path d="M124.13 51.5896L133.798 46.5124L134.551 47.9466L131.898 53.5192L137.973 54.4627L138.726 55.897L129.058 60.9742L128.361 59.6462L135.868 55.7034L129.826 54.6072L132.335 48.9748L124.827 52.9176L124.13 51.5896Z" fill="white"/>
<path d="M134.713 87.5479C134.828 86.5008 135.169 85.5859 135.738 84.8031C136.318 84.035 137.052 83.4581 137.939 83.0724C138.826 82.6866 139.8 82.5518 140.86 82.6678C141.921 82.7839 142.842 83.1262 143.625 83.6947C144.408 84.2633 144.993 84.9845 145.38 85.8585C145.779 86.7472 145.921 87.7151 145.807 88.7622C145.691 89.8225 145.342 90.7367 144.762 91.5048C144.194 92.2876 143.466 92.8719 142.578 93.2576C141.691 93.6434 140.717 93.7782 139.657 93.6622C138.597 93.5461 137.675 93.2038 136.892 92.6352C136.11 92.0667 135.519 91.3381 135.12 90.4494C134.732 89.5754 134.597 88.6082 134.713 87.5479ZM136.164 87.7068C136.079 88.4888 136.176 89.1968 136.455 89.831C136.746 90.4799 137.178 91.01 137.75 91.4213C138.335 91.8341 139.025 92.084 139.82 92.1711C140.629 92.2596 141.357 92.1649 142.004 91.887C142.665 91.6106 143.201 91.1864 143.612 90.6144C144.035 90.0571 144.283 89.3868 144.355 88.6033C144.442 87.8081 144.34 87.0927 144.047 86.457C143.768 85.8229 143.342 85.3001 142.77 84.8888C142.197 84.4907 141.506 84.2474 140.697 84.1589C139.902 84.0719 139.175 84.1599 138.516 84.4231C137.868 84.701 137.333 85.1185 136.91 85.6758C136.5 86.2345 136.251 86.9115 136.164 87.7068Z" fill="white"/>
<path d="M130.663 108.662L140.037 114.264L137.359 118.745C136.785 119.706 136.048 120.315 135.15 120.57C134.263 120.832 133.368 120.693 132.464 120.153C131.056 119.312 130.593 118.072 131.075 116.434L125.903 116.628L126.816 115.1L131.631 114.996L133.396 112.043L129.894 109.95L130.663 108.662ZM134.632 112.781L132.837 115.786C132.447 116.438 132.285 117.033 132.353 117.57C132.413 118.119 132.707 118.551 133.233 118.865C133.771 119.187 134.307 119.251 134.842 119.058C135.381 118.883 135.836 118.487 136.205 117.869L138.031 114.813L134.632 112.781Z" fill="white"/>
<path d="M114.826 126.597L121.015 135.594L114.341 140.184L113.513 138.981L118.951 135.241L117.104 132.555L112.259 135.887L111.432 134.684L116.276 131.352L114.429 128.666L108.991 132.406L108.152 131.187L114.826 126.597Z" fill="white"/>
<path d="M81.1954 80.5396H94.828M94.828 80.5396V94.1722M94.828 80.5396L80.4999 94.8678" stroke="white" stroke-width="2"/>
</svg>
